<svg width="360" height="360" viewBox="0 0 360 360" fill="none" xmlns="http://www.w3.org/2000/svg">
<rect width="360" height="360" rx="15" fill="black"/>
<path fill-rule="evenodd" clip-rule="evenodd" d="M15 0C6.71573 0 0 6.71574 0 15V345C0 353.284 6.71574 360 15 360H345C353.284 360 360 353.284 360 345V15C360 6.71573 353.284 0 345 0H15ZM197.966 75.6188L227.802 158.463C239.723 191.563 214.366 224.194 180 224.194C145.709 224.194 120.249 191.639 132.197 158.464L162.034 75.6188C168.096 58.7868 191.909 58.8009 197.966 75.6188ZM148.351 189.744C148.351 195.444 152.971 200.063 158.67 200.063C164.369 200.063 168.988 195.443 168.988 189.744C168.988 184.046 164.369 179.426 158.67 179.426C152.97 179.426 148.351 184.045 148.351 189.744ZM191.01 189.744C191.01 195.444 195.63 200.063 201.329 200.063C207.028 200.063 211.648 195.443 211.648 189.744C211.648 184.046 207.028 179.426 201.329 179.426C195.63 179.426 191.01 184.045 191.01 189.744ZM105.43 150.684C106.891 155.827 110.365 160.008 114.951 162.394C115.946 157.413 116.077 157.049 124.63 133.388L124.631 133.385L124.631 133.385L124.638 133.366L124.643 133.351C126.769 127.47 129.414 120.152 132.72 110.97C129.327 114.145 126.223 116.958 123.419 119.5C108.517 133.006 102.066 138.854 105.43 150.684ZM235.262 133.087C233.152 127.251 230.537 120.014 227.279 110.97C230.714 114.184 233.851 117.025 236.68 119.587L236.681 119.588C251.552 133.057 257.938 138.841 254.57 150.684C253.109 155.827 249.635 160.007 245.048 162.394C244.053 157.412 243.968 157.174 235.262 133.087ZM156.631 235.659V289.2C156.631 293.506 160.12 297 164.431 297C168.737 297 172.231 293.506 172.231 289.2V239.351C166.87 238.738 161.633 237.5 156.631 235.659ZM129.293 237.131V216.954C133.455 221.757 138.898 226.382 144.894 230.011V237.131C144.894 250.776 133.792 261.873 120.152 261.873C106.507 261.873 95.4094 250.776 95.4094 237.131V216.335H83.6673C79.3616 216.335 75.8672 212.846 75.8672 208.535C75.8672 204.229 79.3616 200.735 83.6673 200.735H103.209C107.52 200.735 111.009 204.229 111.009 208.535V237.131C111.009 242.17 115.112 246.273 120.151 246.273C125.19 246.273 129.293 242.169 129.293 237.131ZM187.769 239.351V289.199C187.769 293.505 191.264 297 195.569 297C199.88 297 203.37 293.505 203.37 289.199V235.659C198.367 237.5 193.131 238.738 187.769 239.351ZM256.79 200.735H276.332C280.638 200.735 284.133 204.229 284.133 208.535C284.133 212.846 280.638 216.335 276.332 216.335H264.59V237.131C264.59 250.776 253.493 261.873 239.848 261.873C226.208 261.873 215.106 250.776 215.106 237.131V230.011C221.084 226.393 226.532 221.77 230.706 216.954V237.131C230.706 242.17 234.809 246.273 239.848 246.273C244.887 246.273 248.99 242.169 248.99 237.131V208.535C248.99 204.229 252.48 200.735 256.79 200.735Z" fill="url(#paint0_linear)"/>
<defs>
<linearGradient id="paint0_linear" x1="136.125" y1="115.875" x2="376.473" y2="252.208" gradientUnits="userSpaceOnUse">
<stop stop-color="#5CADF5"/>
<stop offset="1" stop-color="#188FF4"/>
</linearGradient>
</defs>
</svg>
